<svg width="605" height="621" viewBox="0 0 605 621" fill="none" xmlns="http://www.w3.org/2000/svg">
<g opacity="0.4" clip-path="url(#clip0_36_185)">
<path d="M77.2221 98.8597C96.2351 98.8597 111.648 76.7292 111.648 49.4299C111.648 22.1305 96.2351 0 77.2221 0C58.2091 0 42.796 22.1305 42.796 49.4299C42.796 76.7292 58.2091 98.8597 77.2221 98.8597Z" fill="#FF6584"/>
<path d="M481.576 505.85C469.575 505.849 457.963 499.736 448.804 488.6C439.646 477.463 433.535 462.024 431.558 445.028L431.517 444.668L431.679 444.39C434.37 439.756 436.632 434.641 438.407 429.172C436.445 432.245 434.222 434.953 431.791 437.231L430.98 438.006L430.933 436.609C430.892 435.404 430.871 434.205 430.871 433.049C430.867 426.251 431.521 419.485 432.813 412.945C438.7 383.237 439.706 351.336 435.805 318.127C435.138 312.433 434.803 306.669 434.804 300.895C434.81 276.493 440.865 252.892 451.885 234.316C462.906 215.741 478.171 203.405 494.949 199.516C511.726 195.628 528.92 200.442 543.451 213.096C557.982 225.75 568.901 245.417 574.254 268.576L574.416 269.282L573.937 269.561C570.332 271.752 566.509 273.114 562.609 273.597C566.73 274.958 570.958 275.541 575.185 275.331L575.631 275.309L575.74 275.932C577.157 284.097 577.874 292.48 577.873 300.895L577.87 301.806C577.857 308.25 578.789 314.625 580.607 320.517C582.425 326.409 585.087 331.684 588.421 336C593.837 343.076 598.122 351.753 600.98 361.433C603.838 371.114 605.201 381.569 604.976 392.078C604.751 402.588 602.944 412.903 599.677 422.313C596.411 431.724 591.763 440.007 586.055 446.592L585.79 446.899L585.48 446.696C578.951 442.443 574.194 437.809 570.716 432.277C573.035 439.375 576.157 445.873 579.956 451.505L580.447 452.232L579.837 452.742C572.085 459.233 563.27 462.651 554.296 462.646L554.041 462.645C553.95 462.644 553.859 462.644 553.769 462.644C540.041 462.644 527.03 470.266 518.031 483.591C513.293 490.599 507.627 496.178 501.367 500.001C495.107 503.823 488.378 505.812 481.576 505.85Z" fill="#F2F2F2"/>
<path d="M463.632 620.559C463.412 620.559 463.199 620.445 463.033 620.237C462.867 620.03 462.758 619.744 462.727 619.431C462.688 619.038 458.88 579.604 462.3 527.193C465.459 478.79 475.602 409.074 505.988 351.817C506.06 351.679 506.151 351.564 506.255 351.477C506.359 351.391 506.474 351.334 506.593 351.311C506.712 351.288 506.833 351.299 506.949 351.343C507.066 351.387 507.175 351.463 507.27 351.568C507.366 351.673 507.446 351.803 507.507 351.952C507.567 352.101 507.606 352.266 507.622 352.437C507.638 352.608 507.631 352.782 507.6 352.949C507.57 353.116 507.516 353.272 507.443 353.41C477.32 410.172 467.259 479.377 464.122 527.438C460.722 579.544 464.5 618.671 464.539 619.06C464.557 619.247 464.548 619.437 464.511 619.617C464.473 619.798 464.41 619.965 464.324 620.107C464.238 620.249 464.131 620.363 464.012 620.441C463.893 620.519 463.763 620.559 463.632 620.559Z" fill="#3F3D56"/>
<path d="M478.822 427.527C478.628 427.527 478.44 427.439 478.283 427.276C478.127 427.113 478.01 426.883 477.951 426.619C477.891 426.355 477.891 426.071 477.95 425.807C478.01 425.543 478.127 425.313 478.283 425.15C486.941 416.735 496.294 409.899 506.127 404.798C521.489 396.723 544.85 389.402 568.899 400.392C569.014 400.444 569.12 400.528 569.212 400.639C569.304 400.75 569.379 400.887 569.434 401.04C569.49 401.193 569.523 401.361 569.533 401.532C569.544 401.704 569.53 401.878 569.494 402.042C569.457 402.206 569.399 402.359 569.321 402.491C569.244 402.623 569.149 402.731 569.042 402.811C568.935 402.89 568.819 402.938 568.699 402.953C568.579 402.967 568.459 402.948 568.344 402.895C544.788 392.131 521.851 399.331 506.756 407.266C497.081 412.279 487.878 419.001 479.359 427.275C479.203 427.439 479.015 427.527 478.822 427.527Z" fill="#3F3D56"/>
<path d="M107.03 522.979C98.4933 522.957 85.0529 523.946 77.7318 529.496C72.106 533.762 66.9825 539.272 62.5493 545.825C60.8405 548.36 59.2221 551.018 57.7002 553.788C53.49 533.107 52.9999 511.231 56.2759 490.205C56.5062 488.789 56.4305 487.307 56.0589 485.955C55.6872 484.603 55.0373 483.445 54.1958 482.637C53.3543 481.829 52.3612 481.409 51.349 481.432C50.3368 481.455 49.3535 481.921 48.5304 482.767C36.637 495.221 29.0332 516.325 27.184 537.676C24.8278 564.879 30.3758 592.292 38.0867 617.378L38.0843 617.391C38.07 617.504 38.0484 617.627 38.0272 617.749C37.9986 617.934 37.963 618.118 37.9345 618.303C37.8843 618.62 37.8276 618.948 37.7774 619.266L39.0259 619.184C39.0974 619.235 39.1688 619.276 39.2399 619.327H70.5114C70.9258 618.679 71.3118 617.995 71.6673 617.278C75.1277 610.466 76.5616 601.236 78.3098 592.907C79.5758 586.877 81.1596 580.993 83.0473 575.308C87.8005 561.026 94.359 548.135 102.389 537.291C102.646 536.943 102.91 536.595 103.174 536.257C104.519 534.481 106.604 532.105 108.641 529.876C109.087 529.39 109.415 528.716 109.579 527.948C109.744 527.181 109.736 526.359 109.559 525.598C109.381 524.836 109.041 524.174 108.588 523.705C108.134 523.235 107.59 522.981 107.03 522.979Z" fill="#F2F2F2"/>
<path d="M318.17 99.6201C318.906 102.573 318.804 105.823 317.886 108.669C316.968 111.515 315.308 113.729 313.263 114.834C312.811 115.077 312.344 115.261 311.869 115.386L307.144 156.934L296.058 142.237L302.245 105.035C302.016 101.9 302.655 98.7621 304.025 96.2987C305.395 93.8354 307.385 92.245 309.564 91.8714C311.398 91.5695 313.249 92.1721 314.813 93.5802C316.377 94.9884 317.561 97.1182 318.17 99.62L318.17 99.6201Z" fill="#9E616A"/>
<path d="M236.356 193.764C236.356 193.764 244.96 177.441 276.182 177.888L293.904 168.643L297.954 115.336L312.13 120.182L310.104 186.089L279.729 211.288L239.902 222.919L236.356 193.764Z" fill="#6C63FF"/>
<path d="M188.38 595.625L196.559 600.629L213.895 557.714L201.824 550.328L188.38 595.625Z" fill="#9E616A"/>
<path d="M255.968 606.738L264.858 606.737L269.088 557.499L255.966 557.5L255.968 606.738Z" fill="#9E616A"/>
<path d="M255.655 620.054L282.994 620.052V619.556C282.994 615.504 281.873 611.618 279.877 608.753C277.882 605.887 275.175 604.277 272.353 604.277H272.353L267.359 598.837L258.041 604.278L255.655 604.278L255.655 620.054Z" fill="#2F2E41"/>
<path d="M183.407 604.149L208.558 619.538L208.693 619.082C209.799 615.354 209.829 611.148 208.776 607.388C207.722 603.629 205.672 600.625 203.076 599.036L203.075 599.035L199.967 591.22L189.909 590.98L187.714 589.636L183.407 604.149Z" fill="#2F2E41"/>
<path d="M264.689 315.331L278.201 433.462L274.524 451.066L279.349 463.534L272.263 573.026L275.139 582.118L267.103 589.235H250.75L249.882 490.111L245.842 475.557V467.536L237.619 407.093L236.105 476.233L233.713 490.809L235.722 501.187L233.097 508.458L210.598 577.825H192.26L193.679 562.138C190.393 559.75 198.611 552.77 199.401 547.605L196.701 538.882L199.401 522.406L201.877 490.21L199.266 422.25L200.494 330.734L221.945 307.182L264.689 315.331Z" fill="#2F2E41"/>
<path d="M231.784 159.759C242.019 159.759 250.315 147.846 250.315 133.151C250.315 118.456 242.019 106.544 231.784 106.544C221.55 106.544 213.253 118.456 213.253 133.151C213.253 147.846 221.55 159.759 231.784 159.759Z" fill="#9E616A"/>
<path d="M199.585 364.332C200.104 362.995 200.413 361.511 200.49 359.984C200.566 358.458 200.409 356.925 200.029 355.495C199.648 354.065 199.054 352.773 198.288 351.708C197.522 350.643 196.603 349.833 195.595 349.333L195.551 312.125L184.322 322.797L186.085 356.494C185.613 358.981 185.793 361.63 186.59 363.939C187.387 366.248 188.746 368.057 190.41 369.023C192.074 369.989 193.927 370.045 195.618 369.18C197.309 368.316 198.721 366.591 199.585 364.332Z" fill="#9E616A"/>
<path d="M198.547 199.697L193.53 192.753L189.845 196.573C189.845 196.573 186.219 202.82 183.318 221.563C180.417 240.305 183.318 343.388 183.318 343.388L199.272 340.264L197.097 286.119L203.623 240.305L198.547 199.697Z" fill="#6C63FF"/>
<path d="M191.139 194.447L208.041 182.855L219.516 167.572L240.442 167.347L247.192 179.947L265.013 188.639L262.043 276.868L264.068 283.653C264.068 283.653 262.657 285.483 262.012 286.506C261.368 287.53 262.903 296.098 262.903 296.098L263.769 305.42L261.368 307.883L264.489 313.177L265.264 321.522C265.264 321.522 210.78 302.078 200.485 334.288C199.941 335.99 201.28 319.358 201.28 319.358L202.62 307.182L201.291 296.253L199.266 293.345L202.662 288.468L200.485 265.329L191.139 194.447Z" fill="#6C63FF"/>
<path d="M367.56 595.102H357.53L352.757 539.553H367.56V595.102Z" fill="#FFB6B6"/>
<path d="M372.854 620.054H365.661L364.377 610.303L361.089 620.054H342.012C341.097 620.054 340.207 619.634 339.47 618.856C338.733 618.078 338.189 616.982 337.917 615.729C337.645 614.475 337.659 613.13 337.957 611.889C338.256 610.647 338.822 609.576 339.575 608.83L354.809 593.722V583.865L370.834 585.238L372.854 620.054Z" fill="#2F2E41"/>
<path d="M465.107 566.528L456.479 573.874L432.64 529.591L445.373 518.75L465.107 566.528Z" fill="#FFB6B6"/>
<path d="M478.525 584.113L472.338 589.381L467.769 581.934L468.405 592.729L451.996 606.702C451.21 607.372 450.295 607.663 449.385 607.533C448.475 607.403 447.617 606.859 446.938 605.981C446.259 605.102 445.793 603.934 445.608 602.648C445.424 601.362 445.53 600.025 445.913 598.832L453.649 574.68L450.147 566.202L464.418 555.647L478.525 584.113Z" fill="#2F2E41"/>
<path d="M363.083 239.929L358.21 284.543L404.514 285.418L398.421 242.553L363.083 239.929Z" fill="#FFB6B6"/>
<path d="M422.813 317.603C421.523 317.099 420.327 316.195 419.307 314.954C418.288 313.714 417.47 312.168 416.912 310.425C416.353 308.682 416.068 306.784 416.076 304.865C416.083 302.947 416.384 301.054 416.956 299.32L397.258 207.108L411.747 202.984L429.763 293.371C431.728 294.945 433.222 297.499 433.964 300.549C434.705 303.599 434.641 306.933 433.784 309.92C432.927 312.907 431.337 315.339 429.315 316.755C427.293 318.171 424.979 318.473 422.813 317.603V317.603Z" fill="#FFB6B6"/>
<path d="M399.444 272.321L364.825 249.145C363.913 249.117 363.032 248.66 362.318 247.845C361.603 247.03 361.095 245.901 360.87 244.631C359.159 234.904 355.394 224.091 357.391 198.842C357.785 193.95 358.858 189.222 360.547 184.937C362.236 180.651 364.507 176.896 367.225 173.893C369.942 170.89 373.052 168.7 376.369 167.452C379.687 166.205 383.145 165.926 386.539 166.631C390.119 167.367 393.551 169.181 396.608 171.956C399.666 174.73 402.281 178.401 404.28 182.728C406.28 187.055 407.621 191.94 408.213 197.063C408.806 202.186 408.637 207.431 407.718 212.454C403.7 234.361 404.131 257.788 403.673 266.792C403.605 268.094 403.243 269.328 402.64 270.306C402.038 271.284 401.229 271.952 400.338 272.209C400.073 272.284 399.803 272.322 399.533 272.323C399.503 272.323 399.474 272.322 399.444 272.321Z" fill="#6C63FF"/>
<path d="M324.906 117.453C324.714 118.07 324.488 118.664 324.231 119.23L340.784 174.961L350.959 176.753L351.082 199.155L332.855 198.495C331.383 198.442 329.962 197.704 328.806 196.393C327.65 195.082 326.822 193.268 326.446 191.223L314.176 124.583C312.438 123.838 310.899 122.352 309.764 120.321C308.628 118.29 307.951 115.811 307.821 113.213C307.691 110.616 308.114 108.023 309.036 105.78C309.957 103.536 311.332 101.749 312.978 100.655C314.624 99.5615 316.463 99.2131 318.25 99.6566C320.037 100.1 321.688 101.314 322.983 103.138C324.278 104.961 325.156 107.308 325.499 109.865C325.843 112.422 325.636 115.068 324.906 117.453V117.453Z" fill="#FFB6B6"/>
<path d="M342.452 172.975C342.864 172.451 343.349 172.06 343.876 171.831C344.402 171.601 344.957 171.537 345.502 171.643L364.546 175.345C367.361 175.292 370.075 176.844 372.094 179.661C374.113 182.478 375.272 186.33 375.316 190.372C375.36 194.413 374.286 198.315 372.33 201.222C370.373 204.128 367.694 205.802 364.879 205.877L345.846 210.282C345.302 210.408 344.747 210.364 344.216 210.153C343.686 209.943 343.194 209.571 342.772 209.062C342.351 208.554 342.011 207.921 341.776 207.207C341.54 206.493 341.415 205.715 341.408 204.925L341.161 177.161C341.154 176.371 341.265 175.588 341.488 174.865C341.711 174.143 342.04 173.498 342.452 172.975Z" fill="#6C63FF"/>
<path d="M396.375 230.466C395.888 230.098 395.462 229.584 395.126 228.958C394.79 228.333 394.552 227.61 394.429 226.84L390.103 199.956C389.074 196.194 389.125 192 390.246 188.292C391.367 184.585 393.466 181.667 396.083 180.178C398.7 178.689 401.621 178.751 404.207 180.35C406.792 181.949 408.83 184.954 409.875 188.707L419.478 212.711C419.752 213.396 419.92 214.158 419.97 214.944C420.021 215.731 419.953 216.524 419.77 217.269C419.588 218.015 419.296 218.695 418.914 219.264C418.533 219.833 418.07 220.277 417.558 220.566L399.559 230.718C399.047 231.008 398.497 231.135 397.948 231.091C397.398 231.048 396.862 230.834 396.375 230.466Z" fill="#6C63FF"/>
<path d="M395.608 157.15C405.095 149.703 408.582 132.623 403.396 119C398.209 105.378 386.314 100.371 376.826 107.818C367.338 115.265 363.851 132.345 369.038 145.968C374.224 159.59 386.12 164.597 395.608 157.15Z" fill="#FFB6B6"/>
<path d="M372.748 121.183C368.548 121.149 364.347 121.116 360.147 121.082C359.848 116.971 361.122 112.881 362.979 109.723C364.835 106.565 367.239 104.187 369.613 101.849C372.022 99.4745 374.518 97.0465 377.382 96.2167C379.783 95.5213 382.265 96.0038 384.69 96.4881C387.907 97.1303 391.124 97.7726 394.34 98.4148C397.871 99.1197 401.565 99.9171 404.433 102.958C408.311 107.069 407.32 116.56 411.041 120.96C422.28 134.25 417.729 145.857 417.939 157.971C404.358 160.016 390.777 162.062 377.195 164.107C375.721 164.472 374.212 164.409 372.755 163.922C371.329 163.296 370.021 161.6 369.916 159.464C369.798 157.078 371.116 155.126 372.187 153.293C374.741 148.75 376.273 143.201 376.583 137.379C376.892 131.558 375.963 125.739 373.919 120.693L372.748 121.183Z" fill="#2F2E41"/>
<path d="M227.044 158.456C226.965 158.206 226.886 157.954 226.807 157.702C226.837 157.704 226.867 157.71 226.898 157.711L227.044 158.456Z" fill="#2F2E41"/>
<path d="M223.553 156.969C222.637 154.208 222.04 151.254 221.784 148.221C221.682 147.11 221.74 145.981 221.954 144.901C222.169 143.821 222.537 142.809 223.04 141.928L223.049 141.913L223.058 141.899C223.639 141.024 224.503 140.444 225.414 140.334C225.804 140.286 226.192 140.327 226.555 140.459C226.257 139.159 226.106 137.798 226.106 136.427C226.107 134.506 226.408 132.606 226.989 130.866C227.569 129.126 228.418 127.582 229.481 126.353C230.544 125.123 231.801 124.234 233.165 123.771C234.926 123.173 236.699 123.331 238.397 123.615C238.852 123.691 239.299 123.776 239.739 123.859C240.977 124.092 242.168 124.317 243.37 124.328C245.626 124.295 247.859 123.507 249.893 122.005C251.931 120.501 253.712 118.322 255.084 115.629L223.553 156.969ZM223.553 156.969C219.986 156.608 216.534 154.785 213.613 151.662C210.489 148.321 208.137 143.663 206.895 138.305C205.654 132.949 205.587 127.171 206.704 121.758C207.712 116.876 209.636 112.519 212.238 109.15V109.273L213.14 108.051C213.946 106.959 214.955 106.349 215.977 106.25C216.367 106.28 216.828 106.56 217.184 107.07C217.541 107.583 217.743 108.265 217.639 108.969L218.599 109.225C220.769 103.709 224.205 99.5131 228.266 97.3264C232.314 95.1471 236.752 95.0856 240.825 97.1492L241.051 96.7032L240.825 97.1492C243.685 98.5978 246.475 101.486 247.137 105.71C247.208 106.913 247.459 108.085 247.877 109.145L247.894 109.19L247.92 109.231C248.313 109.846 248.842 110.315 249.463 110.541C250.087 110.768 250.747 110.728 251.347 110.435L251.363 110.428L251.376 110.422L251.388 110.416C251.43 110.396 251.463 110.396 251.499 110.41C251.543 110.427 251.616 110.478 251.687 110.596C251.757 110.713 251.808 110.872 251.823 111.056C251.837 111.238 251.812 111.418 251.757 111.569C251.757 111.569 251.757 111.57 251.756 111.57L250.915 113.824L250.732 114.315L251.231 114.475C252.402 114.85 253.622 114.812 254.778 114.368C254.813 114.355 254.847 114.355 254.892 114.379C254.947 114.409 255.027 114.481 255.094 114.622C255.16 114.761 255.199 114.939 255.197 115.129C255.195 115.319 255.152 115.494 255.084 115.628L223.553 156.969Z" fill="#FCFCFC" stroke="white"/>
<path d="M139.348 11.505C122.664 8.26687 103.616 21.2152 99.2912 44.5779C98.2015 40.424 96.2202 36.8751 93.6337 34.4439C91.0471 32.0126 87.9893 30.8249 84.9018 31.0524C81.8144 31.2799 78.8573 32.9107 76.4577 35.7094C74.058 38.508 72.3402 42.3295 71.5522 46.6217L73.4624 48.586C109.217 59.6876 146.228 59.4473 181.911 47.882C170.305 30.3693 156.032 14.743 139.348 11.505Z" fill="#F0F0F0"/>
<path d="M358.031 283.979L344.806 330.033L343.842 453.192L355.128 570.783H367.618L372.735 455.109L385.322 375.96L397.736 458.742L436.334 539.768H455.3L420.43 450.48L416.395 353.215C416.395 353.215 418.91 311.953 406.037 287.605L402.904 274.607L358.031 283.979Z" fill="white"/>
<path d="M67.9862 76.4297C51.5229 73.2345 33.1322 85.1922 27.541 106.759C26.3664 103.931 24.744 101.481 22.7663 99.6216C20.0087 97.0296 16.6849 95.7104 13.2761 95.9616C9.87326 96.2123 6.68369 98.0055 4.14626 100.965C1.61202 103.92 -0.16962 107.914 -0.983565 112.348L-1.07676 112.855L-0.716922 113.225L1.19319 115.19L1.37058 115.372L1.61358 115.447C37.5654 126.61 74.7878 126.369 110.667 114.74L111.919 114.334L111.192 113.236C105.365 104.443 98.8438 96.0853 91.6566 89.5091C84.4717 82.935 76.5711 78.0958 67.9862 76.4297Z" fill="white" stroke="white" stroke-width="2"/>
</g>
<defs>
<clipPath id="clip0_36_185">
<rect width="605" height="621" fill="white"/>
</clipPath>
</defs>
</svg>
